<?xml version="1.0" standalone="no"?>
<!DOCTYPE svg PUBLIC "-//W3C//DTD SVG 20010904//EN"
 "http://www.w3.org/TR/2001/REC-SVG-20010904/DTD/svg10.dtd">
<svg version="1.0" xmlns="http://www.w3.org/2000/svg"
 width="399.000000pt" height="399.000000pt" viewBox="0 0 399.000000 399.000000"
 preserveAspectRatio="xMidYMid meet">
<metadata>
Created by potrace 1.16, written by Peter Selinger 2001-2019
</metadata>
<g transform="translate(0.000000,399.000000) scale(0.100000,-0.100000)"
fill="#000000" stroke="none">
<path d="M0 1995 l0 -1995 1995 0 1995 0 0 1995 0 1995 -1995 0 -1995 0 0
-1995z m1654 1773 c-204 -210 -325 -394 -374 -570 -27 -98 -26 -127 9 -175 45
-63 159 -171 228 -216 34 -22 61 -42 60 -44 -4 -3 -288 15 -344 23 -77 10
-163 123 -163 214 0 88 88 284 186 416 75 100 205 242 284 308 66 55 207 156
219 156 2 0 -45 -51 -105 -112z m734 65 c291 -180 612 -620 612 -838 0 -61
-42 -140 -95 -181 -38 -29 -47 -30 -325 -48 l-95 -7 70 47 c77 52 198 169 238
230 26 38 26 40 13 104 -43 203 -168 405 -394 634 -59 60 -95 102 -79 93 15
-9 39 -25 55 -34z m-560 -64 c-7 -5 -8 -9 -2 -9 6 0 14 -29 17 -69 3 -41 15
-87 27 -111 12 -23 19 -44 16 -47 -3 -3 4 -14 14 -26 24 -25 21 -28 -34 -61
-41 -24 -46 -25 -74 -10 -33 16 -35 21 -53 99 -20 91 -22 160 -5 174 9 8 16
20 16 28 0 8 5 11 12 7 7 -4 8 -3 4 5 -5 7 8 29 31 54 l38 42 3 -34 c2 -20 -2
-37 -10 -42z m427 44 c-3 -8 1 -21 9 -29 22 -22 31 -17 11 6 -10 11 -14 20 -9
19 5 0 22 -17 38 -37 17 -20 24 -31 16 -24 -8 6 -19 12 -24 12 -6 0 3 -9 19
-20 17 -11 26 -20 21 -20 -5 0 -4 -6 2 -13 35 -42 -9 -267 -52 -267 -8 0 -16
-5 -18 -12 -3 -9 -22 -3 -61 17 -31 17 -56 32 -54 35 1 3 17 34 35 70 18 36
35 89 39 118 3 28 9 52 13 52 4 0 3 21 -1 48 -13 76 -12 87 6 72 9 -7 13 -20
10 -27z m-392 -485 c-68 -70 -119 -153 -139 -227 l-17 -60 28 -36 c15 -20 45
-50 68 -66 l41 -30 17 47 c23 58 40 78 113 125 l58 38 39 -19 c76 -39 149
-124 149 -175 0 -27 19 -16 82 44 60 59 61 60 54 103 -10 65 -58 156 -128 239
-57 68 -59 71 -21 42 69 -55 153 -153 177 -207 35 -77 36 -83 29 -133 -5 -38
-15 -55 -57 -98 -64 -64 -104 -94 -183 -134 -84 -42 -176 -44 -261 -5 -77 35
-196 126 -227 173 -54 80 -30 179 73 300 42 49 135 131 150 131 3 0 -17 -24
-45 -52z m-1010 -593 c44 -6 49 -9 71 -53 46 -90 47 -90 85 -26 l35 56 55 -7
c31 -4 57 -8 59 -10 2 -1 -26 -45 -62 -96 l-66 -93 0 -87 0 -86 -37 -7 c-86
-14 -83 -16 -83 82 0 58 -5 94 -14 107 -16 23 -126 226 -126 232 0 2 8 2 18 0
9 -3 38 -8 65 -12z m2437 -49 l0 -53 -112 -9 c-111 -9 -113 -9 -113 -34 0 -25
0 -25 83 -22 94 4 139 -9 148 -42 3 -11 4 -57 2 -100 -3 -71 -6 -81 -28 -97
-24 -18 -32 -18 -170 -4 -80 8 -148 15 -152 15 -5 0 -8 21 -8 46 l0 46 123 -3
122 -4 0 25 c0 25 -1 25 -102 30 -77 4 -106 9 -119 22 -36 36 -26 176 14 194
18 8 237 41 285 43 26 1 27 -1 27 -53z m-1992 -123 l3 -123 69 0 70 0 0 115 0
115 55 0 55 0 0 -141 0 -140 -32 -14 c-18 -7 -92 -16 -164 -20 -180 -10 -174
-16 -174 183 0 82 2 151 4 153 3 3 29 2 58 -1 l53 -5 3 -122z m1602 -44 c0
-161 -2 -180 -16 -175 -9 3 -33 6 -55 6 l-39 0 0 169 0 170 48 4 c26 2 50 4
55 5 4 1 7 -79 7 -179z m-140 121 l0 -40 -55 0 -55 0 0 -120 0 -121 -57 3 -58
3 -3 113 -3 112 -54 0 -55 0 0 34 c0 34 1 35 53 40 53 6 126 11 230 14 l57 2
0 -40z m-976 -51 c41 -38 77 -69 80 -69 3 0 6 32 6 71 l0 70 53 -3 52 -3 3
-137 3 -138 -50 0 c-47 0 -54 4 -133 70 l-83 71 -3 -76 -3 -75 -54 0 -55 0 0
148 0 147 55 -3 c52 -4 58 -7 129 -73z m356 15 c0 -30 4 -54 8 -54 4 0 32 25
62 55 l54 55 66 0 65 -1 -68 -62 -68 -62 75 -75 c42 -41 76 -78 76 -82 0 -5
-28 -8 -63 -8 l-63 0 -64 65 c-35 36 -68 65 -72 65 -4 0 -8 -27 -8 -60 l0 -60
-55 0 -55 0 0 133 c0 74 2 136 4 138 3 2 27 5 55 6 l51 2 0 -55z m282 -337
c129 -59 285 -166 400 -273 l51 -47 -6 -101 c-11 -179 -61 -339 -149 -478 -52
-81 -64 -94 -48 -54 32 84 83 450 74 530 -6 53 -11 63 -53 103 -89 85 -255
191 -323 207 -33 7 -32 10 -14 -42 13 -36 13 -48 -5 -119 -11 -43 -34 -103
-52 -133 -41 -69 -170 -201 -223 -228 l-40 -21 -60 38 c-172 109 -301 353
-250 475 l16 38 -28 -7 c-80 -19 -230 -112 -319 -198 l-63 -60 0 -102 c0 -56
4 -126 10 -156 5 -30 17 -98 25 -151 9 -54 22 -119 30 -145 8 -26 13 -48 11
-50 -5 -5 -88 130 -113 184 -48 105 -93 307 -93 419 0 49 2 53 53 100 106 100
234 189 377 260 l85 43 317 1 317 0 73 -33z m-1163 -13 c-7 -9 -45 -40 -84
-69 -112 -84 -212 -186 -237 -241 -22 -46 -23 -60 -21 -249 2 -110 8 -245 13
-300 12 -111 45 -314 60 -366 25 -85 -22 -19 -100 143 -90 186 -155 468 -167
718 l-5 125 102 108 c56 59 112 110 125 113 27 7 244 31 294 33 30 1 32 -1 20
-15z m1721 1 l155 -16 96 -97 c137 -139 130 -125 118 -267 -21 -260 -76 -508
-146 -665 -33 -72 -116 -220 -125 -220 -4 0 -2 15 3 33 11 39 45 242 59 357 6
47 13 178 17 292 l6 207 -32 65 c-32 65 -108 142 -246 252 -79 62 -91 74 -74
74 8 0 84 -7 169 -15z m-735 -775 c-4 -6 8 -10 30 -10 20 0 52 -9 73 -20 42
-22 112 -83 112 -98 0 -5 7 -15 15 -22 9 -7 13 -20 10 -28 -3 -8 2 -23 12 -34
15 -17 15 -25 3 -86 -19 -97 -22 -101 -38 -47 -31 108 -114 200 -231 258 l-64
31 38 33 c39 34 51 41 40 23z m-367 -31 c12 -7 22 -17 22 -20 0 -4 -25 -19
-55 -34 -118 -57 -189 -133 -230 -247 -24 -68 -24 -68 -46 41 -10 50 -10 66
-1 69 7 2 10 8 6 13 -3 5 0 9 6 9 7 0 10 6 7 14 -12 31 92 141 156 165 31 12
110 6 135 -10z m-420 -481 c17 -17 15 -33 -2 -19 -10 8 -16 9 -21 1 -4 -6 -3
-10 2 -9 4 1 11 0 16 -1 4 -1 13 -3 20 -4 6 -1 11 -7 10 -14 -2 -7 3 -11 10
-9 6 1 11 -5 9 -13 -2 -8 0 -12 4 -7 4 4 18 -3 31 -15 l23 -22 -71 -37 c-113
-60 -162 -117 -201 -235 l-23 -69 -21 114 c-21 107 -21 116 -6 157 9 24 20 44
24 44 4 0 8 7 8 15 0 20 56 83 81 90 11 4 18 10 15 13 -7 7 41 30 65 31 8 1
20 -4 27 -11z m1216 2 c14 -5 24 -15 22 -22 -1 -7 -1 -10 1 -5 10 17 24 5 17
-15 -6 -21 -5 -22 11 -8 15 12 19 11 36 -10 10 -14 19 -31 19 -38 0 -7 7 -15
15 -18 16 -6 30 -41 26 -63 -1 -7 2 -10 7 -7 21 13 20 -64 -1 -168 l-23 -110
-17 65 c-22 78 -53 132 -104 181 -39 37 -125 88 -149 88 -8 0 -14 6 -14 13 0
19 89 101 114 104 11 2 22 6 25 10 3 3 -4 3 -16 0 -13 -3 -23 -1 -23 4 0 12
22 11 54 -1z"/>
</g>
</svg>
